<?xml version="1.0" encoding="utf-8"?>
<!-- Generator: Adobe Illustrator 16.0.0, SVG Export Plug-In . SVG Version: 6.00 Build 0)  -->
<!DOCTYPE svg PUBLIC "-//W3C//DTD SVG 1.1//EN" "http://www.w3.org/Graphics/SVG/1.1/DTD/svg11.dtd">
<svg version="1.1" id="Layer_1" xmlns="http://www.w3.org/2000/svg" xmlns:xlink="http://www.w3.org/1999/xlink" x="0px" y="0px"
	 width="512px" height="512px" viewBox="0 0 512 512" enable-background="new 0 0 512 512" xml:space="preserve">
<path d="M448,0H64C46.328,0,32,14.313,32,32v448c0,17.688,14.328,32,32,32h288l128-128V32C480,14.313,465.688,0,448,0z M352,466.75
	V384h82.75L352,466.75z M448,352h-96c-17.688,0-32,14.313-32,32v96H64V32h384V352z M96,112c0-8.844,7.156-16,16-16h288
	c8.844,0,16,7.156,16,16s-7.156,16-16,16H112C103.156,128,96,120.844,96,112z M96,208c0-8.844,7.156-16,16-16h288
	c8.844,0,16,7.156,16,16s-7.156,16-16,16H112C103.156,224,96,216.844,96,208z M96,304c0-8.844,7.156-16,16-16h288
	c8.844,0,16,7.156,16,16s-7.156,16-16,16H112C103.156,320,96,312.844,96,304z"/>
</svg>
